<svg xmlns="http://www.w3.org/2000/svg" viewBox="0 0 1200 750" role="img" aria-label="Cross-section of a dental implant with abutment and crown between two natural teeth"><defs><linearGradient id="bg" x1="0" y1="0" x2="1" y2="1"><stop offset="0" stop-color="#FFF3C8"/><stop offset="1" stop-color="#FFD15E"/></linearGradient><linearGradient id="tw" x1="0" y1="0" x2="0" y2="1"><stop offset="0" stop-color="#fff"/><stop offset="1" stop-color="#EEF3F1"/></linearGradient></defs><rect width="1200" height="750" fill="url(#bg)"/><circle cx="1060" cy="110" r="230" fill="#fff" opacity=".38"/><circle cx="110" cy="690" r="190" fill="#fff" opacity=".3"/><circle cx="980" cy="640" r="26" fill="#fff" opacity=".6"/><circle cx="170" cy="120" r="16" fill="#fff" opacity=".7"/><circle cx="1110" cy="420" r="12" fill="#fff" opacity=".7"/><rect x="120" y="360" width="960" height="330" rx="40" fill="#F0D9A8"/><rect x="120" y="360" width="960" height="30" fill="#E2C27C"/>
    <path d="M120 350 C300 320 420 372 600 350 C780 328 900 372 1080 350 V400 H120Z" fill="#EE8F94"/>
    <g transform="translate(180 250) scale(3.2 3.2)"><path d="M20 30C20 10 40 6 50 14C60 6 80 10 80 30C80 50 72 62 70 84C68 108 62 116 56 116C50 116 52 90 50 90C48 90 50 116 44 116C38 116 32 108 30 84C28 62 20 50 20 30Z" fill="url(#tw)" stroke="#0B2B31" stroke-width="1.2" stroke-linejoin="round"/></g><g transform="translate(750 250) scale(3.2 3.2)"><path d="M20 30C20 10 40 6 50 14C60 6 80 10 80 30C80 50 72 62 70 84C68 108 62 116 56 116C50 116 52 90 50 90C48 90 50 116 44 116C38 116 32 108 30 84C28 62 20 50 20 30Z" fill="url(#tw)" stroke="#0B2B31" stroke-width="1.2" stroke-linejoin="round"/></g>
    <rect x="552" y="452" width="96" height="170" rx="22" fill="#B9C6C8" stroke="#0B2B31" stroke-width="4"/><path d="M552 470 h96" stroke="#0B2B31" stroke-width="5" stroke-linecap="round"/><path d="M552 496 h96" stroke="#0B2B31" stroke-width="5" stroke-linecap="round"/><path d="M552 522 h96" stroke="#0B2B31" stroke-width="5" stroke-linecap="round"/><path d="M552 548 h96" stroke="#0B2B31" stroke-width="5" stroke-linecap="round"/><path d="M552 574 h96" stroke="#0B2B31" stroke-width="5" stroke-linecap="round"/><path d="M552 600 h96" stroke="#0B2B31" stroke-width="5" stroke-linecap="round"/>
    <rect x="574" y="380" width="52" height="76" rx="8" fill="#8FA1A4" stroke="#0B2B31" stroke-width="4"/>
    <path d="M500 380 C500 230 560 210 600 226 C640 210 700 230 700 380 Z" fill="url(#tw)" stroke="#0B2B31" stroke-width="4" stroke-linejoin="round"/>
    <text x="600" y="118" text-anchor="middle" font-family="Bricolage Grotesque,Segoe UI,Helvetica,Arial,sans-serif" font-size="58" font-weight="700" fill="#0B2B31">Implant, abutment, crown</text><text x="1040" y="660" text-anchor="end" font-family="Bricolage Grotesque,Segoe UI,Helvetica,Arial,sans-serif" font-size="36" font-weight="600" fill="#6B5320">Jawbone</text></svg>