<svg xmlns="http://www.w3.org/2000/svg" viewBox="0 0 1200 750" role="img" aria-label="Row of teeth with braces brackets and wire"><defs><linearGradient id="bg" x1="0" y1="0" x2="1" y2="1"><stop offset="0" stop-color="#DCEBFF"/><stop offset="1" stop-color="#93BEFF"/></linearGradient><linearGradient id="tw" x1="0" y1="0" x2="0" y2="1"><stop offset="0" stop-color="#fff"/><stop offset="1" stop-color="#EEF3F1"/></linearGradient></defs><rect width="1200" height="750" fill="url(#bg)"/><circle cx="1060" cy="110" r="230" fill="#fff" opacity=".38"/><circle cx="110" cy="690" r="190" fill="#fff" opacity=".3"/><circle cx="980" cy="640" r="26" fill="#fff" opacity=".6"/><circle cx="170" cy="120" r="16" fill="#fff" opacity=".7"/><circle cx="1110" cy="420" r="12" fill="#fff" opacity=".7"/><rect x="128" y="335.0" width="124" height="190" rx="52" fill="url(#tw)" stroke="#0B2B31" stroke-width="5"/><rect x="278" y="321.0" width="124" height="190" rx="52" fill="url(#tw)" stroke="#0B2B31" stroke-width="5"/><rect x="428" y="307.0" width="124" height="190" rx="52" fill="url(#tw)" stroke="#0B2B31" stroke-width="5"/><rect x="578" y="307.0" width="124" height="190" rx="52" fill="url(#tw)" stroke="#0B2B31" stroke-width="5"/><rect x="728" y="321.0" width="124" height="190" rx="52" fill="url(#tw)" stroke="#0B2B31" stroke-width="5"/><rect x="878" y="335.0" width="124" height="190" rx="52" fill="url(#tw)" stroke="#0B2B31" stroke-width="5"/><path d="M190 427 Q565.0 386 940 427" fill="none" stroke="#9AA9AD" stroke-width="8" stroke-linecap="round"/><rect x="170" y="407.0" width="40" height="40" rx="8" fill="#2F6FE0" stroke="#0B2B31" stroke-width="3"/><rect x="320" y="393.0" width="40" height="40" rx="8" fill="#2F6FE0" stroke="#0B2B31" stroke-width="3"/><rect x="470" y="379.0" width="40" height="40" rx="8" fill="#2F6FE0" stroke="#0B2B31" stroke-width="3"/><rect x="620" y="379.0" width="40" height="40" rx="8" fill="#2F6FE0" stroke="#0B2B31" stroke-width="3"/><rect x="770" y="393.0" width="40" height="40" rx="8" fill="#2F6FE0" stroke="#0B2B31" stroke-width="3"/><rect x="920" y="407.0" width="40" height="40" rx="8" fill="#2F6FE0" stroke="#0B2B31" stroke-width="3"/><text x="600" y="160" text-anchor="middle" font-family="Bricolage Grotesque,Segoe UI,Helvetica,Arial,sans-serif" font-size="64" font-weight="700" fill="#0B2B31">Braces and aligners</text><text x="600" y="620" text-anchor="middle" font-family="Bricolage Grotesque,Segoe UI,Helvetica,Arial,sans-serif" font-size="44" font-weight="600" fill="#254B8F">Straight teeth, any age</text></svg>