<svg xmlns="http://www.w3.org/2000/svg" viewBox="0 0 1200 750" role="img" aria-label="Cutaway of a tooth showing enamel, dentin, pulp and root canals"><defs><linearGradient id="bg" x1="0" y1="0" x2="1" y2="1"><stop offset="0" stop-color="#FFE1DC"/><stop offset="1" stop-color="#FFA093"/></linearGradient><linearGradient id="tw" x1="0" y1="0" x2="0" y2="1"><stop offset="0" stop-color="#fff"/><stop offset="1" stop-color="#EEF3F1"/></linearGradient></defs><rect width="1200" height="750" fill="url(#bg)"/><circle cx="1060" cy="110" r="230" fill="#fff" opacity=".38"/><circle cx="110" cy="690" r="190" fill="#fff" opacity=".3"/><circle cx="980" cy="640" r="26" fill="#fff" opacity=".6"/><circle cx="170" cy="120" r="16" fill="#fff" opacity=".7"/><circle cx="1110" cy="420" r="12" fill="#fff" opacity=".7"/><g transform="translate(240 70) scale(4.8)">
      <path d="M20 30C20 10 40 6 50 14C60 6 80 10 80 30C80 50 72 62 70 84C68 108 62 116 56 116C50 116 52 90 50 90C48 90 50 116 44 116C38 116 32 108 30 84C28 62 20 50 20 30Z" fill="url(#tw)" stroke="#0B2B31" stroke-width="1.1" stroke-linejoin="round"/>
      <path d="M27 30 C27 16 40 13 50 19 C60 13 73 16 73 30 C73 48 66 60 65 82 C64 100 60 108 56 108 C52 108 53 92 50 92 C47 92 48 108 44 108 C40 108 36 100 35 82 C34 60 27 48 27 30Z" fill="#F3E3B8"/>
      <path d="M38 30 C38 24 46 22 50 26 C54 22 62 24 62 30 C62 38 58 46 56 52 C54 50 46 50 44 52 C42 46 38 38 38 30Z" fill="#E8464F"/>
      <path d="M44 51 C41 70 39 90 37 106 M56 51 C59 70 61 90 63 106" fill="none" stroke="#E8464F" stroke-width="3.6" stroke-linecap="round"/></g>
    <g stroke="#0B2B31" stroke-width="4" fill="none" stroke-linecap="round"><path d="M620 190 H700"/><path d="M572 290 H700"/><path d="M536 470 H700"/></g>
    <text x="716" y="204" text-anchor="start" font-family="Bricolage Grotesque,Segoe UI,Helvetica,Arial,sans-serif" font-size="46" font-weight="700" fill="#0B2B31">Enamel</text><text x="716" y="304" text-anchor="start" font-family="Bricolage Grotesque,Segoe UI,Helvetica,Arial,sans-serif" font-size="46" font-weight="700" fill="#0B2B31">Dentin</text><text x="716" y="484" text-anchor="start" font-family="Bricolage Grotesque,Segoe UI,Helvetica,Arial,sans-serif" font-size="46" font-weight="700" fill="#0B2B31">Pulp + canals</text>
    <text x="716" y="530" text-anchor="start" font-family="Bricolage Grotesque,Segoe UI,Helvetica,Arial,sans-serif" font-size="32" font-weight="600" fill="#8A2A22">cleaned and sealed</text></svg>