<svg xmlns="http://www.w3.org/2000/svg" viewBox="0 0 1200 750" role="img" aria-label="Illustration of a stained tooth next to a whitened tooth with a veneer"><defs><linearGradient id="bg" x1="0" y1="0" x2="1" y2="1"><stop offset="0" stop-color="#EAF6F4"/><stop offset="1" stop-color="#C6E8E3"/></linearGradient><linearGradient id="tw" x1="0" y1="0" x2="0" y2="1"><stop offset="0" stop-color="#fff"/><stop offset="1" stop-color="#EEF3F1"/></linearGradient></defs><rect width="1200" height="750" fill="url(#bg)"/><circle cx="1040" cy="120" r="210" fill="#fff" opacity=".35"/><circle cx="120" cy="680" r="170" fill="#fff" opacity=".3"/>
    <defs><linearGradient id="g230" x1="0" y1="0" x2="0" y2="1"><stop offset="0" stop-color="#E2C983"/><stop offset="1" stop-color="#EFE0AE"/></linearGradient></defs><rect x="230" y="230" width="220" height="360" rx="96" fill="url(#g230)" stroke="#0B2B31" stroke-width="4"/>
    <path d="M330 232 l24 34 l-30 22z" fill="#C9AE66" opacity=".0"/>
    <rect x="310" y="410" width="60" height="16" rx="8" fill="#C9AE66" opacity=".6"/>
    <defs><linearGradient id="g700" x1="0" y1="0" x2="0" y2="1"><stop offset="0" stop-color="#FFFFFF"/><stop offset="1" stop-color="#E9F1F0"/></linearGradient></defs><rect x="700" y="230" width="220" height="360" rx="96" fill="url(#g700)" stroke="#0B2B31" stroke-width="4"/>
    <ellipse cx="770" cy="340" rx="24" ry="60" fill="#fff" opacity=".8"/>
    <path d="M960 216 L969.52 240.48 L994 250 L969.52 259.52 L960 284 L950.48 259.52 L926 250 L950.48 240.48Z" fill="#0B7F7C"/><path d="M1010 310 L1015.6 324.4 L1030 330 L1015.6 335.6 L1010 350 L1004.4 335.6 L990 330 L1004.4 324.4Z" fill="#0B7F7C"/><path d="M660 198 L666.16 213.84 L682 220 L666.16 226.16 L660 242 L653.84 226.16 L638 220 L653.84 213.84Z" fill="#0B7F7C"/>
    <path d="M500 400 h130" stroke="#0B2B31" stroke-width="5" stroke-linecap="round"/><path d="M612 382 l26 18 l-26 18" fill="none" stroke="#0B2B31" stroke-width="5" stroke-linecap="round" stroke-linejoin="round"/>
    <text x="340" y="640" text-anchor="middle" font-family="Segoe UI,Helvetica,Arial,sans-serif" font-size="34" font-weight="600" fill="#0B2B31">Before</text><text x="810" y="640" text-anchor="middle" font-family="Segoe UI,Helvetica,Arial,sans-serif" font-size="34" font-weight="600" fill="#0B2B31">After</text>
    <text x="600" y="120" text-anchor="middle" font-family="Segoe UI,Helvetica,Arial,sans-serif" font-size="32" font-weight="500" fill="#41595E">A veneer is a thin shell bonded to the front of the tooth</text></svg>